<svg width="13" height="26" viewBox="0 0 13 26" fill="none" xmlns="http://www.w3.org/2000/svg">
<path d="M7.9303 6.20416C7.9303 6.47025 7.9303 7.33754 7.9303 8.5697H12.3296L11.8526 12.3461H7.9303C7.9303 18.1701 7.9303 25.9746 7.9303 25.9746H2.72404C2.72404 25.9746 2.72404 18.2734 2.72404 12.3461H0.0112305V8.5697H2.72404C2.72404 7.07206 2.72404 6.00712 2.72404 5.71061C2.72404 4.29788 2.61351 3.62757 3.23689 2.53282C3.86058 1.43813 5.61979 -0.00882807 8.66251 0.0260079C11.706 0.0621133 12.9888 0.344051 12.9888 0.344051L12.3296 4.36882C12.3296 4.36882 10.3862 3.87467 9.43228 4.05078C8.47963 4.22694 7.9303 4.79203 7.9303 6.20416Z" fill="#32BCF1"/>
</svg>
