<svg width="23" height="23" viewBox="0 0 23 23" fill="none" xmlns="http://www.w3.org/2000/svg">
<path fill-rule="evenodd" clip-rule="evenodd" d="M0.25 4.75C0.25 2.26472 2.26472 0.25 4.75 0.25H18.25C20.7352 0.25 22.75 2.26472 22.75 4.75V18.25C22.75 20.7352 20.7352 22.75 18.25 22.75H4.75C2.26472 22.75 0.25 20.7352 0.25 18.25V4.75ZM4.75 2.5C3.50736 2.5 2.5 3.50736 2.5 4.75V18.25C2.5 19.4927 3.50736 20.5 4.75 20.5H18.25C19.4927 20.5 20.5 19.4927 20.5 18.25V4.75C20.5 3.50736 19.4927 2.5 18.25 2.5H4.75ZM11.5 8.125C9.63599 8.125 8.125 9.63599 8.125 11.5C8.125 13.364 9.63599 14.875 11.5 14.875C13.364 14.875 14.875 13.364 14.875 11.5C14.875 9.63599 13.364 8.125 11.5 8.125ZM5.875 11.5C5.875 8.3934 8.3934 5.875 11.5 5.875C14.6066 5.875 17.125 8.3934 17.125 11.5C17.125 14.6066 14.6066 17.125 11.5 17.125C8.3934 17.125 5.875 14.6066 5.875 11.5ZM17.6875 7C18.6194 7 19.375 6.24448 19.375 5.3125C19.375 4.38052 18.6194 3.625 17.6875 3.625C16.7555 3.625 16 4.38052 16 5.3125C16 6.24448 16.7555 7 17.6875 7Z" fill="#32BCF1"/>
</svg>
